<svg
  width="320"
  height="200"
  viewBox="0 0 320 200"
  xmlns="http://www.w3.org/2000/svg"
>
  <defs>
    <linearGradient id="wingGrad" x1="0%" y1="0%" x2="100%" y2="0%">
      <stop offset="0%" stop-color="#0f4c81" />
      <stop offset="100%" stop-color="#0f9ce6" />
    </linearGradient>
  </defs>
  <g fill="none" stroke="#000" stroke-linejoin="round">
    <path
      d="M24 106c30-46 78-82 143-86 48-4 88 28 90 74 2 34-20 68-20 68s32-4 44-28c16-32-32-88-78-92-43-4-86 36-118 60-20 14-37 20-61 8-11-5-9-16 0-28Z"
      fill="#000"
    />
    <path
      d="M86 118c18 0 30 28 60 34 32 6 60-18 60-36 0-18-12-36-40-34-28 2-66 30-80 40Z"
      fill="#fff"
    />
    <path
      d="M92 38c30-12 78-28 118-8 26 14 22 60 60 74"
      stroke="url(#wingGrad)"
      stroke-width="12"
      stroke-linecap="round"
    />
  </g>
  <text
    x="30"
    y="178"
    fill="#000"
    font-family="Space Grotesk, Manrope, sans-serif"
    font-size="54"
    font-weight="600"
  >
    fleetidy
  </text>
</svg>
